<svg xmlns="http://www.w3.org/2000/svg" viewBox="0 0 900 500" fill="none">
  <defs>
    <linearGradient id="bg" x1="0%" y1="0%" x2="100%" y2="100%">
      <stop offset="0%" stop-color="#0f0f1a"/><stop offset="100%" stop-color="#1a1a2e"/>
    </linearGradient>
  </defs>
  <rect width="900" height="500" fill="url(#bg)" rx="12"/>

  <!-- Header -->
  <text x="30" y="36" fill="#fff" font-family="sans-serif" font-size="18" font-weight="300">Motion Token Studio</text>
  <text x="30" y="54" fill="#666" font-family="sans-serif" font-size="10">9 easing curves · 6 durations · 12 motion presets</text>

  <!-- Easing mini previews row -->
  <text x="30" y="82" fill="#555" font-family="sans-serif" font-size="9" font-weight="600" letter-spacing="1">EASING CURVES</text>
  <rect x="30" y="92" width="40" height="28" rx="8" fill="#1e1e32"/><path d="M 32 118 Q 36 100 40 118 Q 44 100 48 118 Q 52 100 56 118 Q 60 100 64 118" fill="none" stroke="#6366f1" stroke-width="1.5"/>
  <rect x="76" y="92" width="40" height="28" rx="8" fill="#1e1e32"/><path d="M 78 118 Q 86 118 90 106 Q 94 94 98 94 Q 102 94 106 106 Q 110 118 114 118" fill="none" stroke="#6366f1" stroke-width="1.5"/>
  <rect x="122" y="92" width="40" height="28" rx="8" fill="#1e1e32"/><path d="M 124 118 Q 128 118 132 106 Q 136 94 140 94 Q 144 94 148 106 Q 152 118 156 118 Q 160 106 164 94" fill="none" stroke="#6366f1" stroke-width="1.5"/>
  <rect x="168" y="92" width="40" height="28" rx="8" fill="#1e1e32"/><path d="M 170 118 Q 178 106 186 94" fill="none" stroke="#6366f1" stroke-width="1.5"/>
  <rect x="214" y="92" width="40" height="28" rx="8" fill="#6366f1" opacity="0.2"/><line x1="218" y1="118" x2="250" y2="94" stroke="#6366f1" stroke-width="1.5"/>
  <rect x="260" y="92" width="40" height="28" rx="8" fill="#1e1e32"/><path d="M 266 118 Q 272 86 280 100" fill="none" stroke="#6366f1" stroke-width="1.5"/>
  <rect x="306" y="92" width="40" height="28" rx="8" fill="#1e1e32"/><path d="M 310 118 Q 318 128 322 110 Q 326 92 334 100 Q 338 104 342 100" fill="none" stroke="#6366f1" stroke-width="1.5"/>
  <rect x="352" y="92" width="40" height="28" rx="8" fill="#1e1e32"/><path d="M 354 118 Q 364 118 368 100 Q 372 82 378 82 Q 384 82 388 100 Q 392 118 398 118" fill="none" stroke="#6366f1" stroke-width="1.5"/>
  <rect x="398" y="92" width="40" height="28" rx="8" fill="#1e1e32"/><path d="M 400 118 Q 408 118 414 94 Q 420 94 426 106 Q 432 118 434 94" fill="none" stroke="#6366f1" stroke-width="1.5"/>

  <!-- Duration bar -->
  <text x="30" y="148" fill="#555" font-family="sans-serif" font-size="9" font-weight="600" letter-spacing="1">DURATIONS</text>
  <g transform="translate(30,156)">
    <rect x="0" y="0" width="68" height="32" rx="8" fill="#1e1e32"/><text x="34" y="21" fill="#fff" font-family="monospace" font-size="13" font-weight="700" text-anchor="middle">0ms</text><rect x="4" y="27" width="4" height="2" rx="1" fill="#6366f1"/>
    <rect x="74" y="0" width="68" height="32" rx="8" fill="#1e1e32"/><text x="108" y="21" fill="#fff" font-family="monospace" font-size="13" font-weight="700" text-anchor="middle">100ms</text><rect x="78" y="27" width="6" height="2" rx="1" fill="#6366f1"/>
    <rect x="148" y="0" width="68" height="32" rx="8" fill="#1e1e32"/><text x="182" y="21" fill="#fff" font-family="monospace" font-size="13" font-weight="700" text-anchor="middle">150ms</text><rect x="152" y="27" width="10" height="2" rx="1" fill="#6366f1"/>
    <rect x="222" y="0" width="68" height="32" rx="8" fill="#1e1e32"/><text x="256" y="21" fill="#fff" font-family="monospace" font-size="13" font-weight="700" text-anchor="middle">300ms</text><rect x="226" y="27" width="20" height="2" rx="1" fill="#6366f1"/>
    <rect x="296" y="0" width="68" height="32" rx="8" fill="#1e1e32"/><text x="330" y="21" fill="#fff" font-family="monospace" font-size="13" font-weight="700" text-anchor="middle">500ms</text><rect x="300" y="27" width="34" height="2" rx="1" fill="#6366f1"/>
    <rect x="370" y="0" width="68" height="32" rx="8" fill="#1e1e32"/><text x="404" y="21" fill="#fff" font-family="monospace" font-size="13" font-weight="700" text-anchor="middle">800ms</text><rect x="374" y="27" width="54" height="2" rx="1" fill="#6366f1"/>
  </g>

  <!-- Bezier editor panel -->
  <rect x="30" y="210" width="390" height="270" fill="#1e1e32" rx="12"/>
  <text x="50" y="234" fill="#888" font-family="sans-serif" font-size="9">Cubic-Bezier Curve Editor</text>

  <!-- Grid lines -->
  <line x1="60" y1="255" x2="60" y2="460" stroke="#27272a" stroke-width="0.5" stroke-dasharray="3 3"/>
  <line x1="140" y1="255" x2="140" y2="460" stroke="#27272a" stroke-width="0.5" stroke-dasharray="3 3"/>
  <line x1="220" y1="255" x2="220" y2="460" stroke="#27272a" stroke-width="0.5" stroke-dasharray="3 3"/>
  <line x1="300" y1="255" x2="300" y2="460" stroke="#27272a" stroke-width="0.5" stroke-dasharray="3 3"/>
  <line x1="380" y1="255" x2="380" y2="460" stroke="#27272a" stroke-width="0.5" stroke-dasharray="3 3"/>
  <line x1="60" y1="255" x2="380" y2="255" stroke="#27272a" stroke-width="0.5" stroke-dasharray="3 3"/>
  <line x1="60" y1="306" x2="380" y2="306" stroke="#27272a" stroke-width="0.5" stroke-dasharray="3 3"/>
  <line x1="60" y1="357" x2="380" y2="357" stroke="#27272a" stroke-width="0.5" stroke-dasharray="3 3"/>
  <line x1="60" y1="408" x2="380" y2="408" stroke="#27272a" stroke-width="0.5" stroke-dasharray="3 3"/>

  <!-- Curve path -->
  <path d="M 60 460 C 140 460, 300 255, 380 255" fill="none" stroke="#6366f1" stroke-width="2.5" stroke-linecap="round"/>

  <!-- Control lines -->
  <line x1="60" y1="460" x2="140" y2="460" stroke="#a5b4fc" stroke-width="1" stroke-dasharray="4 2"/>
  <line x1="380" y1="255" x2="300" y2="255" stroke="#a5b4fc" stroke-width="1" stroke-dasharray="4 2"/>

  <!-- Control point handles -->
  <circle cx="140" cy="460" r="8" fill="#fff" stroke="#6366f1" stroke-width="2"/>
  <circle cx="300" cy="255" r="8" fill="#fff" stroke="#ec4899" stroke-width="2"/>

  <!-- Preview ball track -->
  <line x1="60" y1="470" x2="380" y2="470" stroke="#27272a" stroke-width="1"/>
  <circle cx="220" cy="470" r="6" fill="#6366f1" opacity="0.85"/>

  <!-- CSS output -->
  <text x="220" y="490" fill="#888" font-family="monospace" font-size="9" text-anchor="middle">cubic-bezier(0.42, 0, 0.58, 1)</text>

  <!-- Motion Presets panel -->
  <rect x="440" y="210" width="430" height="270" fill="#1e1e32" rx="12"/>
  <text x="460" y="234" fill="#888" font-family="sans-serif" font-size="9">Motion Presets</text>

  <!-- Category tabs -->
  <rect x="460" y="244" width="64" height="24" fill="#6366f1" rx="6"/>
  <text x="492" y="260" fill="#fff" font-family="sans-serif" font-size="10" font-weight="500" text-anchor="middle">Enter</text>
  <rect x="530" y="244" width="64" height="24" fill="#2a2a40" rx="6"/>
  <text x="562" y="260" fill="#888" font-family="sans-serif" font-size="10" text-anchor="middle">Exit</text>
  <rect x="600" y="244" width="64" height="24" fill="#2a2a40" rx="6"/>
  <text x="632" y="260" fill="#888" font-family="sans-serif" font-size="10" text-anchor="middle">Hover</text>
  <rect x="670" y="244" width="64" height="24" fill="#2a2a40" rx="6"/>
  <text x="702" y="260" fill="#888" font-family="sans-serif" font-size="10" text-anchor="middle">Attention</text>

  <!-- Preset cards row 1 -->
  <rect x="460" y="280" width="96" height="72" fill="#2a2a40" rx="10"/>
  <rect x="468" y="288" width="80" height="30" fill="#1e1e32" rx="6"/>
  <circle cx="508" cy="303" r="6" fill="#6366f1" opacity="0.6"/>
  <text x="508" y="338" fill="#aaa" font-family="sans-serif" font-size="9" text-anchor="middle">Fade In</text>

  <rect x="562" y="280" width="96" height="72" fill="#2a2a40" rx="10"/>
  <rect x="570" y="288" width="80" height="30" fill="#1e1e32" rx="6"/>
  <circle cx="610" cy="303" r="6" fill="#6366f1" opacity="0.6"/>
  <text x="610" y="338" fill="#aaa" font-family="sans-serif" font-size="9" text-anchor="middle">Slide Up</text>

  <rect x="664" y="280" width="96" height="72" fill="#2a2a40" rx="10"/>
  <rect x="672" y="288" width="80" height="30" fill="#1e1e32" rx="6"/>
  <circle cx="712" cy="303" r="6" fill="#6366f1" opacity="0.6"/>
  <text x="712" y="338" fill="#aaa" font-family="sans-serif" font-size="9" text-anchor="middle">Scale In</text>

  <rect x="766" y="280" width="96" height="72" fill="#2a2a40" rx="10"/>
  <rect x="774" y="288" width="80" height="30" fill="#1e1e32" rx="6"/>
  <circle cx="814" cy="303" r="6" fill="#6366f1" opacity="0.6"/>
  <text x="814" y="338" fill="#aaa" font-family="sans-serif" font-size="9" text-anchor="middle">Blur In</text>

  <!-- Preset cards row 2 -->
  <rect x="460" y="358" width="96" height="72" fill="#2a2a40" rx="10"/>
  <rect x="468" y="366" width="80" height="30" fill="#1e1e32" rx="6"/>
  <circle cx="508" cy="381" r="6" fill="#f59e0b" opacity="0.6"/>
  <text x="508" y="416" fill="#aaa" font-family="sans-serif" font-size="9" text-anchor="middle">Pulse</text>

  <rect x="562" y="358" width="96" height="72" fill="#2a2a40" rx="10"/>
  <rect x="570" y="366" width="80" height="30" fill="#1e1e32" rx="6"/>
  <circle cx="610" cy="381" r="6" fill="#f59e0b" opacity="0.6"/>
  <text x="610" y="416" fill="#aaa" font-family="sans-serif" font-size="9" text-anchor="middle">Shake</text>

  <rect x="664" y="358" width="96" height="72" fill="#2a2a40" rx="10"/>
  <rect x="672" y="366" width="80" height="30" fill="#1e1e32" rx="6"/>
  <circle cx="712" cy="381" r="6" fill="#22c55e" opacity="0.6"/>
  <text x="712" y="416" fill="#aaa" font-family="sans-serif" font-size="9" text-anchor="middle">Lift</text>

  <rect x="766" y="358" width="96" height="72" fill="#2a2a40" rx="10"/>
  <rect x="774" y="366" width="80" height="30" fill="#1e1e32" rx="6"/>
  <circle cx="814" cy="381" r="6" fill="#22c55e" opacity="0.6"/>
  <text x="814" y="416" fill="#aaa" font-family="sans-serif" font-size="9" text-anchor="middle">Expand</text>

  <!-- Tokens JSON preview -->
  <rect x="460" y="440" width="410" height="40" fill="#1a1a2e" rx="6"/>
  <text x="478" y="460" fill="#86efac" font-family="monospace" font-size="10">"fast": { "$value": "150ms" }</text>
  <text x="660" y="460" fill="#fbbf24" font-family="monospace" font-size="10">"ease": "cubic-bezier(0.25, 0.1, 0.25, 1)"</text>
</svg>
